<svg width="24" height="24" viewBox="0 0 24 24" fill="none" xmlns="http://www.w3.org/2000/svg">
<path d="M20.561 6.96879C19.041 13.7235 13.7235 19.041 6.96879 20.561C4.81355 21.046 3 19.2091 3 17V15.25C3 14.6977 3.4486 14.2547 3.99877 14.2063C5.08823 14.1104 6.13312 13.8593 7.11117 13.4751L8.82037 15.1843C11.6003 13.854 13.854 11.6003 15.1843 8.82037L13.4751 7.11118C13.8593 6.13313 14.1104 5.08823 14.2063 3.99877C14.2547 3.44861 14.6977 3 15.25 3H17C19.2091 3 21.046 4.81355 20.561 6.96879Z" stroke="#FFCC00" stroke-width="1.5" stroke-linecap="round" stroke-linejoin="round"/>
<path d="M9.7998 6.52002C9.36902 6.52002 8.94246 6.60487 8.54446 6.76972C8.14647 6.93458 7.78485 7.17621 7.48024 7.48081C7.17563 7.78542 6.934 8.14705 6.76915 8.54504C6.60429 8.94303 6.51944 9.3696 6.51944 9.80038" stroke="#FFCC00" stroke-width="1.5" stroke-linecap="round" stroke-linejoin="round"/>
<path d="M9 3.20093C8.23848 3.20093 7.48441 3.35092 6.78085 3.64234C6.0773 3.93377 5.43803 4.36091 4.89955 4.89939C4.36107 5.43787 3.93393 6.07714 3.6425 6.78069C3.35108 7.48425 3.20109 8.23831 3.20109 8.99984" stroke="#FFCC00" stroke-width="1.5" stroke-linecap="round" stroke-linejoin="round"/>
</svg>
